<svg id="Layer_1" data-name="Layer 1" xmlns="http://www.w3.org/2000/svg" xmlns:xlink="http://www.w3.org/1999/xlink" viewBox="0 0 886 1171"><defs><style>.cls-1{fill:url(#linear-gradient);}.cls-2,.cls-21{fill:#fff;}.cls-3{fill:url(#linear-gradient-2);}.cls-4{fill:url(#linear-gradient-3);}.cls-5{fill:url(#linear-gradient-4);}.cls-6{fill:url(#linear-gradient-5);}.cls-7{fill:url(#linear-gradient-6);}.cls-8{fill:url(#linear-gradient-7);}.cls-9{fill:url(#linear-gradient-8);}.cls-10{fill:url(#linear-gradient-9);}.cls-11{fill:url(#linear-gradient-10);}.cls-12{fill:url(#linear-gradient-11);}.cls-13{fill:url(#linear-gradient-12);}.cls-14{fill:url(#linear-gradient-13);}.cls-15{fill:url(#linear-gradient-14);}.cls-16{fill:url(#linear-gradient-15);}.cls-17{fill:url(#linear-gradient-16);}.cls-18{fill:url(#linear-gradient-17);}.cls-19{fill:url(#linear-gradient-18);}.cls-20{fill:url(#linear-gradient-19);}.cls-21{stroke:#fff;stroke-miterlimit:10;stroke-width:5px;}</style><linearGradient id="linear-gradient" x1="226" y1="188" x2="326" y2="188" gradientUnits="userSpaceOnUse"><stop offset="0" stop-color="#42210b"/><stop offset="0.36" stop-color="#42210b"/><stop offset="0.65" stop-color="red"/><stop offset="1"/></linearGradient><linearGradient id="linear-gradient-2" x1="485.5" y1="715" x2="584.5" y2="715" xlink:href="#linear-gradient"/><linearGradient id="linear-gradient-3" x1="311.5" y1="323" x2="410.5" y2="323" xlink:href="#linear-gradient"/><linearGradient id="linear-gradient-4" x1="376" y1="199" x2="476" y2="199" xlink:href="#linear-gradient"/><linearGradient id="linear-gradient-5" x1="182.5" y1="323" x2="281.5" y2="323" xlink:href="#linear-gradient"/><linearGradient id="linear-gradient-6" x1="437.5" y1="313" x2="536.5" y2="313" xlink:href="#linear-gradient"/><linearGradient id="linear-gradient-7" x1="197.5" y1="458" x2="296.5" y2="458" xlink:href="#linear-gradient"/><linearGradient id="linear-gradient-8" x1="349.5" y1="447" x2="448.5" y2="447" xlink:href="#linear-gradient"/><linearGradient id="linear-gradient-9" x1="495.5" y1="449" x2="594.5" y2="449" xlink:href="#linear-gradient"/><linearGradient id="linear-gradient-10" x1="188" y1="579" x2="288" y2="579" xlink:href="#linear-gradient"/><linearGradient id="linear-gradient-11" x1="314" y1="590" x2="414" y2="590" xlink:href="#linear-gradient"/><linearGradient id="linear-gradient-12" x1="579" y1="584" x2="679" y2="584" xlink:href="#linear-gradient"/><linearGradient id="linear-gradient-13" x1="349" y1="723" x2="449" y2="723" xlink:href="#linear-gradient"/><linearGradient id="linear-gradient-14" x1="439" y1="590" x2="539" y2="590" xlink:href="#linear-gradient"/><linearGradient id="linear-gradient-15" x1="205" y1="721" x2="305" y2="721" xlink:href="#linear-gradient"/><linearGradient id="linear-gradient-16" x1="354" y1="844" x2="454" y2="844" xlink:href="#linear-gradient"/><linearGradient id="linear-gradient-17" x1="194" y1="852" x2="294" y2="852" xlink:href="#linear-gradient"/><linearGradient id="linear-gradient-18" x1="260" y1="987" x2="360" y2="987" xlink:href="#linear-gradient"/><linearGradient id="linear-gradient-19" x1="426" y1="952" x2="526" y2="952" xlink:href="#linear-gradient"/></defs><title>Artboard 2</title><rect class="cls-1" x="226" y="138" width="100" height="100" rx="27.88"/><path class="cls-2" d="M265.42,157.37c-3.88-1.91-8.2,1.37-8.24,6.25l-.39,45.08c-.05,5.24,4.81,8.59,8.78,6l39.93-25.66c4.32-2.77,4-10.07-.54-12.29Z"/><rect class="cls-3" x="485.5" y="665.5" width="99" height="99" rx="27.38"/><path d="M557.12,666A26.91,26.91,0,0,1,584,692.88v44.24A26.91,26.91,0,0,1,557.12,764H512.88A26.91,26.91,0,0,1,486,737.12V692.88A26.91,26.91,0,0,1,512.88,666h44.24m0-1H512.88A28,28,0,0,0,485,692.88v44.24A28,28,0,0,0,512.88,765h44.24A28,28,0,0,0,585,737.12V692.88A28,28,0,0,0,557.12,665Z"/><rect class="cls-4" x="311.5" y="273.5" width="99" height="99" rx="27.38"/><path d="M383.12,274A26.91,26.91,0,0,1,410,300.88v44.24A26.91,26.91,0,0,1,383.12,372H338.88A26.91,26.91,0,0,1,312,345.12V300.88A26.91,26.91,0,0,1,338.88,274h44.24m0-1H338.88A28,28,0,0,0,311,300.88v44.24A28,28,0,0,0,338.88,373h44.24A28,28,0,0,0,411,345.12V300.88A28,28,0,0,0,383.12,273Z"/><rect class="cls-5" x="376" y="149" width="100" height="100" rx="27.88"/><rect class="cls-6" x="182.5" y="273.5" width="99" height="99" rx="27.38"/><path d="M254.12,274A26.91,26.91,0,0,1,281,300.88v44.24A26.91,26.91,0,0,1,254.12,372H209.88A26.91,26.91,0,0,1,183,345.12V300.88A26.91,26.91,0,0,1,209.88,274h44.24m0-1H209.88A28,28,0,0,0,182,300.88v44.24A28,28,0,0,0,209.88,373h44.24A28,28,0,0,0,282,345.12V300.88A28,28,0,0,0,254.12,273Z"/><path class="cls-2" d="M440.28,167.23c4.16-2.08,8.7,1.67,8.67,7.16L448.62,225c0,5.9-5.27,9.57-9.45,6.64L397.1,202.15c-4.55-3.19-4.09-11.37.78-13.79Z"/><rect class="cls-7" x="437.5" y="263.5" width="99" height="99" rx="27.38"/><path d="M509.12,264A26.91,26.91,0,0,1,536,290.88v44.24A26.91,26.91,0,0,1,509.12,362H464.88A26.91,26.91,0,0,1,438,335.12V290.88A26.91,26.91,0,0,1,464.88,264h44.24m0-1H464.88A28,28,0,0,0,437,290.88v44.24A28,28,0,0,0,464.88,363h44.24A28,28,0,0,0,537,335.12V290.88A28,28,0,0,0,509.12,263Z"/><rect class="cls-8" x="197.5" y="408.5" width="99" height="99" rx="27.38"/><path d="M269.12,409A26.91,26.91,0,0,1,296,435.88v44.24A26.91,26.91,0,0,1,269.12,507H224.88A26.91,26.91,0,0,1,198,480.12V435.88A26.91,26.91,0,0,1,224.88,409h44.24m0-1H224.88A28,28,0,0,0,197,435.88v44.24A28,28,0,0,0,224.88,508h44.24A28,28,0,0,0,297,480.12V435.88A28,28,0,0,0,269.12,408Z"/><rect class="cls-9" x="349.5" y="397.5" width="99" height="99" rx="27.38"/><path d="M421.12,398A26.91,26.91,0,0,1,448,424.88v44.24A26.91,26.91,0,0,1,421.12,496H376.88A26.91,26.91,0,0,1,350,469.12V424.88A26.91,26.91,0,0,1,376.88,398h44.24m0-1H376.88A28,28,0,0,0,349,424.88v44.24A28,28,0,0,0,376.88,497h44.24A28,28,0,0,0,449,469.12V424.88A28,28,0,0,0,421.12,397Z"/><rect class="cls-10" x="495.5" y="399.5" width="99" height="99" rx="27.38"/><path d="M567.12,400A26.91,26.91,0,0,1,594,426.88v44.24A26.91,26.91,0,0,1,567.12,498H522.88A26.91,26.91,0,0,1,496,471.12V426.88A26.91,26.91,0,0,1,522.88,400h44.24m0-1H522.88A28,28,0,0,0,495,426.88v44.24A28,28,0,0,0,522.88,499h44.24A28,28,0,0,0,595,471.12V426.88A28,28,0,0,0,567.12,399Z"/><polygon class="cls-2" points="204 306.5 204 346.5 226 330.5 226 346.5 260 322.5 226 300.5 226 311.5 226 316.5 204 306.5"/><polygon class="cls-2" points="390 306.5 390 346.5 366.04 330.5 366.04 346.5 329 322.5 366.04 300.5 366.04 311.5 366.04 316.5 390 306.5"/><rect class="cls-2" x="459" y="284" width="57" height="57" rx="12"/><rect class="cls-2" x="251" y="423" width="14.91" height="70" rx="7.46"/><rect class="cls-2" x="225" y="423" width="14.91" height="70" rx="7.46"/><polyline class="cls-2" points="369 433 369 462 398 462 398 479 436 445 398 416 398 432"/><polyline class="cls-2" points="579 435 579 464 550.87 464 550.87 481 514 447 550.87 418 550.87 434"/><rect class="cls-11" x="188" y="529" width="100" height="100" rx="27.88"/><path class="cls-2" d="M271.88,571.45a3.63,3.63,0,0,0-2.21-6.09l-16.33-1.93a3.62,3.62,0,0,1-2.79-1.92l-7.65-14.74a3.63,3.63,0,0,0-6.53.2l-6.76,15.17a3.62,3.62,0,0,1-2.67,2.09l-16.18,2.9a3.63,3.63,0,0,0-1.84,6.21l12.23,11.49a3.63,3.63,0,0,1,1.11,3.13L220,604.69a3.62,3.62,0,0,0,5.4,3.62l14.15-8.17A3.6,3.6,0,0,1,243,600l14.61,7.31a3.62,3.62,0,0,0,5.17-4l-3.29-16.56a3.66,3.66,0,0,1,.92-3.19ZM249.17,584c-2.59,4.44-9,6.58-13.48,3.79a10,10,0,0,1-4-11,10.14,10.14,0,0,1,11.19-7c.17,0,.32.08.48.12a6,6,0,0,1,1.73.58l.17.08.34.19A9.81,9.81,0,0,1,249.17,584Z"/><path class="cls-2" d="M219.6,579.83l-6.54,8.74a8.14,8.14,0,0,0-1.5,2.61,2.8,2.8,0,0,0,.63,2.81,4.17,4.17,0,0,0,2.89.69l11.6-.16"/><path class="cls-2" d="M233.15,602.21l5.13,8.56c.79,1.31,1.9,2.81,3.43,2.69s2.47-2,3-3.53l4.1-12.73"/><path class="cls-2" d="M257,591.28c1.64,1.22,4.14.66,6.19,0l9.52-2.91c.7-.21,1.49-.49,1.77-1.08.43-.92-.58-1.82-1.49-2.43l-11.22-7.51"/><path class="cls-2" d="M244.43,559.22a44.77,44.77,0,0,1,15.64-11,2.94,2.94,0,0,1,2.78-.14,2.89,2.89,0,0,1,.8,2.55A44.46,44.46,0,0,1,259.12,569"/><path class="cls-2" d="M218.85,573l-2.06-16.56c-.19-1.49-.32-3.16.53-4.32,1-1.31,2.72-1.35,4.23-1.18A36,36,0,0,1,238,557.22"/><rect class="cls-12" x="314" y="540" width="100" height="100" rx="27.88"/><rect class="cls-13" x="579" y="534" width="100" height="100" rx="27.88"/><rect class="cls-14" x="349" y="673" width="100" height="100" rx="27.88"/><rect class="cls-15" x="439" y="540" width="100" height="100" rx="27.88"/><rect class="cls-16" x="205" y="671" width="100" height="100" rx="27.88"/><polygon class="cls-2" points="390.5 578 403.5 578 390.5 594 374.5 579 390.5 578"/><path class="cls-2" d="M383.71,579.23c-.43-5.68-5.19-10.4-10.65-12s-11.41-.46-16.62,1.83a30.42,30.42,0,0,0-14.29,12.17c-3.2,5.5-4.11,12.47-1.67,18.35s8.46,10.31,14.82,10.13c2.2-.06,4.37-.63,6.56-.55s4.58,1,5.46,3-.06,4.44-1.74,5.83a10.44,10.44,0,0,1-6.11,2,25.62,25.62,0,0,1-18.25-6.73,35.11,35.11,0,0,1-10.07-16.94c-1.83-6.64-2-14,1.15-20.15,2.68-5.27,7.52-9.17,12.8-11.83A44.19,44.19,0,0,1,390,568a18.12,18.12,0,0,1,4.86,4.82,8.39,8.39,0,0,1,1.18,6.59"/><path class="cls-2" d="M460.93,616.68h0a7.71,7.71,0,0,1,.48-9.86l47.38-48.26a5.64,5.64,0,0,1,8.66.55h0A7.71,7.71,0,0,1,517,569l-47.37,48.26A5.64,5.64,0,0,1,460.93,616.68Z"/><path class="cls-2" d="M517.11,614.61h0a5.63,5.63,0,0,1-8.67.32l-43.77-46.7a7.72,7.72,0,0,1-.28-9.87h0a5.63,5.63,0,0,1,8.67-.32l43.77,46.7A7.72,7.72,0,0,1,517.11,614.61Z"/><path class="cls-2" d="M587.66,584.14h0a7.71,7.71,0,0,1,7.16-6.8l67.59-2.22a5.64,5.64,0,0,1,5.88,6.38h0a7.69,7.69,0,0,1-7.15,6.8l-67.59,2.21A5.64,5.64,0,0,1,587.66,584.14Z"/><path class="cls-2" d="M629.74,621.42h0a5.64,5.64,0,0,1-6.5-5.75l.58-64a7.71,7.71,0,0,1,6.61-7.33h0a5.63,5.63,0,0,1,6.49,5.75l-.58,64A7.7,7.7,0,0,1,629.74,621.42Z"/><path class="cls-2" d="M279,759.17c1.12.08,2.29.22,3.46.32,1,0,1.7,0,2.11,0,2.83-.92,4.92-1.7,5.07-2.79.23-1.73-4.44-4-8.31-5-1.84-.45-2-.22-5.72-.71-5.37-.7-8.05-1-9.56-2.28-2.64-2.14-3.55-6.55-2.87-10.06,1.11-5.73,6.25-6.09,12.43-15.19a46.48,46.48,0,0,0,3.74-6.64c2.93-6.14,3.78-11,5.37-20.46,1-5.89,1-7.57-.13-8.79-2.05-2.28-5.65-1.7-8.63-1.07a105.28,105.28,0,0,1-35.71,1.38,5.46,5.46,0,0,1-4-.19h0c.49.26-.31,0-.14,0-.37,0-.74-.05-1.1-.08l-.3,0,2,.76c-.86-.26-6.27-2.07-8.06.79a9.66,9.66,0,0,0-1,5.56,46.76,46.76,0,0,0,21.51,36.82c2,1.25,4.19,2.41,5.45,4.42,2.08,3.32.81,8-2,10.68s-6.78,3.78-10.62,4.25-7.76.44-11.53,1.35a7.3,7.3,0,0,0-3.12,1.4,3.23,3.23,0,0,0-1.16,3.09c.17.67,1,1.91,5.13,2.55,8.25,1.25,32.92.6,45.73.33A3.75,3.75,0,0,1,279,759.17Z"/><path class="cls-2" d="M229.64,701.28a5.29,5.29,0,0,0-6.42-5.35c-3.71.73-5.63,4.5-5.67,8-.08,7.37,6.35,13.55,12,17.39,1.68,1.15,3.63,2.53,5.75,2.58a4,4,0,0,0,4.07-3.08c.33-1.89-2.57-2.7-2.89-.8-.49,2.82-6.79-2.24-7.73-3a27.72,27.72,0,0,1-6.35-7c-1.51-2.52-2.55-5.83-1.34-8.69a3.94,3.94,0,0,1,3.12-2.52,2.27,2.27,0,0,1,2.47,2.48c-.14,1.93,2.86,1.92,3,0Z"/><path class="cls-2" d="M284.94,701.68c-.06-1,.27-2.75,1.54-2.88s2.24,1.71,2.57,2.74a13.93,13.93,0,0,1-.79,9.19,27.32,27.32,0,0,1-5.05,7.85,32.6,32.6,0,0,1-3.18,3.15c-.51.44-3,2.77-3.22,1a1.54,1.54,0,0,0-1.5-1.5,1.51,1.51,0,0,0-1.5,1.5,4,4,0,0,0,2.55,3.51c1.81.6,3.47-.52,4.83-1.59a35.25,35.25,0,0,0,7.52-8.36,22.54,22.54,0,0,0,3.74-10.36c.26-3.31-.46-7.63-3.6-9.47-3.71-2.18-7.12,1.53-6.91,5.22.11,1.92,3.11,1.93,3,0Z"/><polygon class="cls-2" points="363 702.98 363 747.46 380.42 738.33 408 760 408 695 384.77 710.97 363 702.98"/><path class="cls-2" d="M416.23,708.43a24,24,0,0,1,7.06,18.11,25.52,25.52,0,0,1-8.47,18.15c-1.42,1.31.7,3.42,2.12,2.12a28.59,28.59,0,0,0,9.35-20.27,27,27,0,0,0-7.94-20.23c-1.4-1.34-3.52.78-2.12,2.12Z"/><path class="cls-2" d="M418.46,701.3c6.7,3.83,12.81,9.64,15.11,17.21,2.56,8.42-.54,17-6.48,23.23a48.63,48.63,0,0,1-11.77,8.71c-1.69.94-.18,3.53,1.52,2.59,8.15-4.51,15.92-10.85,19.17-19.88,3.09-8.54,1-17.65-4.47-24.69A39.37,39.37,0,0,0,420,698.7a1.51,1.51,0,0,0-1.52,2.6Z"/><polygon class="cls-2" points="494 693.12 494 732.81 511.42 724.67 539 744 539 686 515.77 700.25 494 693.12"/><path class="cls-2" d="M546.31,732.6h0a4.69,4.69,0,0,1,.28-6l28.31-29.19a3.35,3.35,0,0,1,5.17.34h0a4.69,4.69,0,0,1-.29,6l-28.3,29.18A3.34,3.34,0,0,1,546.31,732.6Z"/><path class="cls-2" d="M579.87,731.35h0a3.34,3.34,0,0,1-5.18.19L548.54,703.3a4.72,4.72,0,0,1-.17-6h0a3.34,3.34,0,0,1,5.18-.19l26.15,28.24A4.7,4.7,0,0,1,579.87,731.35Z"/><rect class="cls-17" x="354" y="794" width="100" height="100" rx="27.88"/><rect class="cls-18" x="194" y="802" width="100" height="100" rx="27.88"/><rect class="cls-2" x="202" y="819" width="17" height="17" rx="8"/><rect class="cls-2" x="202" y="842" width="17" height="17" rx="8.5"/><rect class="cls-2" x="202" y="865" width="17" height="17" rx="8.5"/><rect class="cls-2" x="224" y="821" width="55" height="13"/><rect class="cls-2" x="224" y="867" width="55" height="13"/><rect class="cls-2" x="224" y="844" width="55" height="13"/><rect class="cls-19" x="260" y="937" width="100" height="100" rx="27.88"/><rect class="cls-20" x="426" y="902" width="100" height="100" rx="27.88"/><path class="cls-2" d="M380.76,831.82c-1.87-5.76.24-12.36,4.43-16.74s10.18-6.72,16.2-7.46A28.53,28.53,0,0,1,417.5,810a19.48,19.48,0,0,1,10.35,12.21c1.36,5.33-.28,11.49-4.55,15-3,2.45-6.93,3.43-10.19,5.52a17.73,17.73,0,0,0-7.9,16.28,8.76,8.76,0,0,1,.05,2.75,2.26,2.26,0,0,1-1.79,1.87c-1.4.13-2.27-1.48-2.61-2.84a21.58,21.58,0,0,1,9.6-23.07c3.29-2,7.33-3.24,9.25-6.55,2.21-3.79.51-8.91-2.78-11.81s-7.77-4-12.1-4.69c-3.57-.56-7.47-.83-10.56,1-4.34,2.63-5.43,8.3-6.46,13.27-.44,2.11-1.12,4.46-3,5.47A3.27,3.27,0,0,1,381,834a2.5,2.5,0,0,1,.11-3.6"/><path class="cls-2" d="M382.21,831.43c-2.3-7.46,2.08-15,8.46-18.77a29.35,29.35,0,0,1,23.42-2.46c6.78,2.27,12.75,8.35,12.72,15.83a13.12,13.12,0,0,1-3.75,9.35c-2.87,2.8-7,3.74-10.35,5.79a19.32,19.32,0,0,0-8.95,18.26c0,.42.41,2.59-.41,2.66-.5,0-.84-1.06-1-1.42a16.1,16.1,0,0,1-.6-5,20.51,20.51,0,0,1,2.66-9.6,19.1,19.1,0,0,1,6.92-7.16c2.92-1.72,6.33-2.89,8.59-5.53a9.75,9.75,0,0,0,1.6-9.71,14,14,0,0,0-7.09-7.75,33.54,33.54,0,0,0-11.31-3c-3.84-.45-7.85-.12-11,2.41-2.61,2.15-3.95,5.45-4.81,8.64-.45,1.68-.76,3.4-1.15,5.09-.32,1.42-.77,3.39-2.22,4.08-1.13.54-3.16-.5-1.85-1.68s-.69-3.41-2.12-2.12a4,4,0,0,0-.72,4.92,4.48,4.48,0,0,0,4.72,2c4.05-.71,4.85-5.3,5.56-8.64s1.59-7.36,4.32-9.81c3.3-3,8.36-2.14,12.32-1.38s8.51,2.11,11.05,5.55c2.15,2.9,2.78,7,.05,9.8s-6.6,3.68-9.58,6a22.72,22.72,0,0,0-6.81,8.58,23.32,23.32,0,0,0-2.14,11c.17,2.8,1.13,9,5.37,7.73,2.2-.65,2.77-3.07,2.61-5.08A19.07,19.07,0,0,1,407,854a16.32,16.32,0,0,1,6.24-9.6c3.47-2.48,7.78-3.43,11.11-6.17a15.55,15.55,0,0,0,5.29-10c1.07-8-3.84-15.47-10.73-19.2-14.26-7.73-39.06-1.24-40.31,17.29a16.47,16.47,0,0,0,.7,5.88c.57,1.84,3.47,1.06,2.9-.79Z"/><circle class="cls-21" cx="404.5" cy="874.5" r="5"/><path class="cls-2" d="M319.23,958.59c-1.06-2.94-4.2-5.54-7.65-5.17a7.44,7.44,0,0,0-5.95,5c-.86,2.45-.66,5.09-.44,7.65l2.19,25.86a3.64,3.64,0,0,1,.72,1.64c.06.44.11.89.17,1.33h0c.07.5.14,1,.2,1.49,0,.07,0,.35.07.56s.06.41.07.46c.12.67.33,1.3.49,2a.13.13,0,0,0,0,0l.05.06a4.5,4.5,0,0,1,.67.84,3.4,3.4,0,0,1,.32.34,9.15,9.15,0,0,1,.66,1c4.6-10.82,6.55-22.38,8.46-33.84C319.8,964.73,320.3,961.54,319.23,958.59Z"/><path class="cls-2" d="M311.12,1020.05a6,6,0,1,0-6-6,6.07,6.07,0,0,0,6,6Z"/><path class="cls-2" d="M438.56,951.8c-.29,6.41-.1,13.45,3.85,18.85a18.16,18.16,0,0,0,8.94,6.81,16.74,16.74,0,0,0,10.87-.37c6.13-2.31,11.1-6.61,16.29-10.48l15.14-11.32,17.14-12.81a8.24,8.24,0,0,0,3.44-4.49,7.68,7.68,0,0,0-.75-5.78,7.56,7.56,0,0,0-4.49-3.44c-1.83-.42-4.19-.43-5.78.75L479.91,947l-11.56,8.64c-3.61,2.7-7.15,5.74-11.31,7.56l1.79-.76a14.91,14.91,0,0,1-3.22,1l2-.27a11.25,11.25,0,0,1-2.46.06l2,.27a10.18,10.18,0,0,1-2.31-.59l1.79.75a11.49,11.49,0,0,1-1.54-.84c-1.09-.68,1.28,1.25.41.3-.19-.22-.42-.42-.62-.64-.48-.52-.46-1,.38.55-.14-.26-.35-.5-.51-.75a14,14,0,0,1-.92-1.76l.75,1.79a18,18,0,0,1-1.17-4.44l.26,2a48.2,48.2,0,0,1-.11-8,7.56,7.56,0,0,0-7.5-7.5,7.66,7.66,0,0,0-7.5,7.5Z"/></svg>