<svg id="Layer_1" data-name="Layer 1" xmlns="http://www.w3.org/2000/svg" xmlns:xlink="http://www.w3.org/1999/xlink" viewBox="0 0 1204 784"><defs><style>.cls-1{fill:url(#linear-gradient);}.cls-2{fill:#fff;}.cls-3{fill:url(#linear-gradient-2);}.cls-4{fill:url(#linear-gradient-3);}.cls-5{fill:url(#linear-gradient-4);}.cls-6{fill:url(#linear-gradient-5);}.cls-7{fill:url(#linear-gradient-6);}.cls-8{fill:url(#linear-gradient-7);}.cls-9{fill:url(#linear-gradient-8);}.cls-10{fill:url(#linear-gradient-9);}.cls-11{fill:url(#linear-gradient-10);}</style><linearGradient id="linear-gradient" x1="341" y1="120" x2="823" y2="120" gradientUnits="userSpaceOnUse"><stop offset="0" stop-color="#42210b"/><stop offset="0.36" stop-color="#42210b"/><stop offset="0.65" stop-color="red"/><stop offset="1"/></linearGradient><linearGradient id="linear-gradient-2" x1="675.66" y1="233.02" x2="679.32" y2="233.02" gradientUnits="userSpaceOnUse"><stop offset="0" stop-color="lime"/><stop offset="0.47" stop-color="#006837"/><stop offset="0.5" stop-color="#0d7138"/><stop offset="0.56" stop-color="#8cc63f"/><stop offset="0.63" stop-color="#8cc63f"/></linearGradient><linearGradient id="linear-gradient-3" x1="1130.47" y1="238.68" x2="1139.62" y2="238.68" xlink:href="#linear-gradient-2"/><linearGradient id="linear-gradient-4" x1="1133.66" y1="231.02" x2="1137.32" y2="231.02" xlink:href="#linear-gradient-2"/><linearGradient id="linear-gradient-5" x1="127.5" y1="290" x2="1078.5" y2="290" xlink:href="#linear-gradient"/><linearGradient id="linear-gradient-6" x1="155.5" y1="431" x2="254.5" y2="431" xlink:href="#linear-gradient"/><linearGradient id="linear-gradient-7" x1="282.5" y1="434" x2="381.5" y2="434" xlink:href="#linear-gradient"/><linearGradient id="linear-gradient-8" x1="435.5" y1="434" x2="534.5" y2="434" xlink:href="#linear-gradient"/><linearGradient id="linear-gradient-9" x1="582.5" y1="434" x2="681.5" y2="434" xlink:href="#linear-gradient"/><linearGradient id="linear-gradient-10" x1="730.5" y1="434" x2="829.5" y2="434" xlink:href="#linear-gradient"/></defs><title>Artboard 3</title><rect class="cls-1" x="341" y="78" width="482" height="84" rx="25.88"/><path class="cls-2" d="M797.12,80A23.9,23.9,0,0,1,821,103.88v32.24A23.9,23.9,0,0,1,797.12,160H366.88A23.9,23.9,0,0,1,343,136.12V103.88A23.9,23.9,0,0,1,366.88,80H797.12m0-4H366.88A28,28,0,0,0,339,103.88v32.24A28,28,0,0,0,366.88,164H797.12A28,28,0,0,0,825,136.12V103.88A28,28,0,0,0,797.12,76Z"/><path class="cls-2" d="M450,93.89c-12.44-8.85-30.4-11.06-44-3.57-6.29,3.45-11.37,9.46-11.57,16.88-.19,7.07,4.38,13.72,10.54,16.91,7.29,3.77,15.7,3.54,23.64,2.74a100.75,100.75,0,0,1,12.15-.79c.94,0,1.88.07,2.82.16l.7.07c.74.07-.43-.05-.43-.05s1.31.23,1.52.28a20.54,20.54,0,0,1,2.29.65c.22.07,1.43.55.56.19s.45.23.68.35c.39.2.76.42,1.13.65.21.13,1.19.86.44.25s.16.16.33.31.54.56.81.84c.69.7-.61-1-.18-.2a4.2,4.2,0,0,0,.45.8s-.38-1.24-.34-.75a1.57,1.57,0,0,0,.13.42c.31.87-.21-1.53-.06-.29,0,.14-.06.32,0,.45,0-.07.29-1.27.07-.75a1.87,1.87,0,0,0-.14.5s.58-1.15.27-.62c-.18.31-.34.64-.53.94a2.72,2.72,0,0,0-.32.46c.12-.28.77-.9.22-.32s-1.12,1.14-1.73,1.67l-.47.39c-.49.44.38-.28.4-.29a12.46,12.46,0,0,0-1.33,1,55.85,55.85,0,0,1-8.86,5.06c-.38.18-.79.32-1.16.51,0,0,1.09-.43.46-.2l-.59.24c-.86.33-1.73.65-2.61.94a51.57,51.57,0,0,1-5.45,1.47c-.85.18-1.72.33-2.58.47-.21,0-.43,0-.64.09,0,0,1.22-.14.53-.08-.5.05-1,.11-1.51.15a44.54,44.54,0,0,1-5.42.14c-.86,0-1.73-.08-2.59-.15l-1.29-.14c-.69-.07.53.07.54.07a4.85,4.85,0,0,0-.85-.13,37.35,37.35,0,0,1-5.31-1.29c-.77-.25-1.53-.64-2.31-.85,0,0,1.09.5.5.21l-.55-.26c-.43-.2-.86-.42-1.28-.65-.71-.39-1.4-.81-2.07-1.27-.18-.12-1.23-.9-.51-.34s.12.09,0,0l-.59-.5a22.09,22.09,0,0,1-1.61-1.6c-.24-.27-.45-.59-.71-.84,0,0,.73,1,.39.49-.13-.2-.27-.39-.41-.58a21.32,21.32,0,0,1-1.11-2c-.47-1,.4,1.17.1.17-.12-.37-.25-.74-.34-1.12s-.12-.65-.2-1c-.16-.59.1.8.1.78a2.69,2.69,0,0,0,0-.49,15.12,15.12,0,0,1,.09-2.13,6,6,0,0,0-1.75-4.25,6.09,6.09,0,0,0-4.25-1.75,6,6,0,0,0-4.24,1.75,7.11,7.11,0,0,0-1.76,4.25c-1,7.9,4.36,15,10.46,19.27,6.39,4.51,14.75,6.24,22.46,6.34a58.71,58.71,0,0,0,32.85-10.33c3.61-2.5,7-5.3,8.75-9.43,1.88-4.47.64-9.05-2.37-12.66-2.46-3-6.22-4.88-9.82-6-8-2.6-16.61-1-24.79-.35-1.93.16-3.87.25-5.81.24-.89,0-1.78,0-2.66-.11-.44,0-.87-.07-1.31-.12-.16,0-.91-.1-.07,0s-.09,0-.27-.06c-.84-.15-1.67-.34-2.5-.57-.47-.14-.93-.3-1.4-.46-1.06-.34,1.07.53-.15-.05a16.29,16.29,0,0,1-1.87-1c-.2-.13-1.16-.84-.37-.23s-.24-.21-.43-.39-.55-.53-.81-.81-.88-1.07-.25-.25-.05-.09-.18-.29-.38-.61-.56-.93-.24-.58-.4-.82c0,0,.46,1.3.31.73a3.52,3.52,0,0,0-.15-.42c-.11-.33-.21-.67-.29-1l-.09-.44c-.22-.82,0,.67.07.72a4.45,4.45,0,0,1-.07-1.75c0-.15,0-.3,0-.44,0-.67-.1,1-.13.86a3,3,0,0,1,.2-1c.09-.34.2-.66.3-1,.28-.94-.62,1.18-.13.32.34-.6.73-1.18,1.07-1.78s-.46.58-.45.56a2.85,2.85,0,0,0,.31-.38c.23-.25.45-.5.68-.74s.56-.56.86-.83,1.24-1,.46-.42.21-.14.4-.27.6-.41.91-.6a24.08,24.08,0,0,1,2.11-1.17c.25-.13,1.54-.69.68-.34s.32-.12.54-.2c.8-.3,1.61-.57,2.43-.8s1.55-.41,2.34-.57c.46-.1.93-.18,1.39-.25.2,0,.41,0,.6-.1a3.4,3.4,0,1,0-.38.07,41.26,41.26,0,0,1,5.33-.14,15.27,15.27,0,0,0,2.84.24s-1.2-.19-.52-.06l.65.1c.49.08,1,.18,1.49.28a41.66,41.66,0,0,1,5.35,1.5l1.19.44a3.23,3.23,0,0,0,.58.24s-1.07-.48-.47-.2c.81.38,1.63.75,2.42,1.16a39.09,39.09,0,0,1,4.42,2.72c2.57,1.83,6.79.54,8.21-2.15,1.64-3.09.59-6.26-2.15-8.21Z"/><path class="cls-2" d="M463.05,102.45l50.13-1.07,14.22-.3c3.13-.07,6.15-2.71,6-6a6.1,6.1,0,0,0-6-6l-50.14,1.07-14.21.3c-3.14.07-6.15,2.71-6,6a6.09,6.09,0,0,0,6,6Z"/><path class="cls-2" d="M487,95.62,486.74,144a6,6,0,1,0,12,0L499,95.62a6,6,0,1,0-12,0Z"/><path class="cls-2" d="M558.76,90.86,536,141.18a6.51,6.51,0,0,0-.61,4.62,6.14,6.14,0,0,0,2.76,3.59c2.63,1.39,6.83.9,8.21-2.15l22.73-50.32a6.46,6.46,0,0,0,.61-4.62A6.14,6.14,0,0,0,567,88.71c-2.63-1.39-6.83-.9-8.21,2.15Z"/><path class="cls-2" d="M558.91,96.42a258,258,0,0,0,26,42.24c3.12,4.12,6.32,8.18,9.63,12.14,2,2.42,6.43,2.24,8.49,0a6.16,6.16,0,0,0,0-8.48c-1.35-1.62-2.68-3.24-4-4.88-.63-.79-1.26-1.58-1.88-2.38-.15-.18-1.16-1.44-.67-.85s0,0-.1-.13c-.18-.25-.37-.49-.56-.74-2.5-3.29-4.94-6.64-7.29-10q-6.95-10-12.91-20.71-3.37-6-6.39-12.21c-1.38-2.83-5.62-3.82-8.21-2.15a6.16,6.16,0,0,0-2.15,8.2Z"/><path class="cls-2" d="M550.81,130.75l31,.11a6,6,0,0,0,0-12l-31-.11a6,6,0,0,0,0,12Z"/><path class="cls-2" d="M675.12,106.46,728,105c3.13-.09,6.15-2.7,6-6a6.09,6.09,0,0,0-6-6l-52.88,1.46c-3.13.09-6.14,2.7-6,6s2.64,6.1,6,6Z"/><path class="cls-2" d="M693.7,99.57,693.52,151a6,6,0,0,0,12,0l.18-51.43a6,6,0,1,0-12,0Z"/><path class="cls-2" d="M610.29,99.36l4.65,46.94a6.48,6.48,0,0,0,1.76,4.25,6.08,6.08,0,0,0,4.24,1.75c3-.13,6.33-2.65,6-6l-4.65-46.94a6.48,6.48,0,0,0-1.76-4.25,6.08,6.08,0,0,0-4.24-1.75c-3,.13-6.33,2.65-6,6Z"/><path class="cls-2" d="M618,103.78a27,27,0,0,1,3.35-1.91c.12-.06,1.24-.67.37-.18s.24-.09.39-.15c.76-.28,1.54-.54,2.32-.77a33.34,33.34,0,0,1,3.84-.87l.2,0c.67-.1.55-.09-.35,0a4,4,0,0,1,1-.11c.77-.07,1.55-.11,2.32-.13,1.41,0,2.81.06,4.22.16s-1-.18-.14,0c.35,0,.69.1,1,.17.81.15,1.62.33,2.42.54,1.19.32,2.33.72,3.48,1.14,1.31.49-1.23-.58,0,0l.71.34c.69.34,1.38.71,2,1.11s1,.69,1.58,1c.84.56-.26-.16-.33-.27a4.18,4.18,0,0,0,.85.7q.67.59,1.29,1.23l.48.52.45.53c-.51-.69-.64-.85-.38-.48s.57.93.86,1.39c.68,1.07-.41-1.32,0-.13.07.22.15.44.21.66l.08.33c.13.64.11.44,0-.6a3.63,3.63,0,0,0,0,.67c.11,1.14.44-1.39.06-.31l-.08.32c-.2.59-.13.42.24-.52a5.11,5.11,0,0,0-.35.59l.5-.66a6.75,6.75,0,0,1-.53.54c-.63.68.29-.33.43-.33a4.17,4.17,0,0,0-.87.52c-.47.29-.62,0,.48-.17a10.35,10.35,0,0,0-1,.36,16,16,0,0,1-1.81.46c-.2,0-1,.06-1.14.2.06-.07,1.53-.17.42-.07-.65.06-1.31.13-2,.17-1.61.11-3.22.15-4.82.21l-22.71.85a6,6,0,0,0-4.24,10.24c12.6,12.79,28,22.74,44.42,29.87a6.56,6.56,0,0,0,4.62.61,6.17,6.17,0,0,0,3.59-2.76c1.37-2.59.92-6.88-2.16-8.21a150.39,150.39,0,0,1-23.45-12.7q-2.7-1.8-5.32-3.74l-1.33-1c-.3-.23-1.39-.92-.09-.08a28.15,28.15,0,0,1-2.57-2.05,122.79,122.79,0,0,1-9.23-8.43l-4.24,10.24,23.2-.87c7.13-.27,15.86-.44,20.2-7.15s0-15-5.53-19.44a36.34,36.34,0,0,0-20.58-7.7,37.14,37.14,0,0,0-22.5,5.7c-2.61,1.74-4,5.37-2.16,8.21,1.68,2.59,5.42,4,8.21,2.15Z"/><path class="cls-3" d="M675.66,236.92l3.66-7.8"/><path class="cls-4" d="M1130.47,238l9.15,1.47"/><path class="cls-5" d="M1133.66,234.92l3.66-7.8"/><rect class="cls-6" x="127.5" y="240.5" width="951" height="99" rx="27.38"/><path class="cls-2" d="M1051.12,241A26.91,26.91,0,0,1,1078,267.88v44.24A26.91,26.91,0,0,1,1051.12,339H154.88A26.91,26.91,0,0,1,128,312.12V267.88A26.91,26.91,0,0,1,154.88,241h896.24m0-1H154.88A28,28,0,0,0,127,267.88v44.24A28,28,0,0,0,154.88,340h896.24A28,28,0,0,0,1079,312.12V267.88A28,28,0,0,0,1051.12,240Z"/><path class="cls-2" d="M199.34,261l-.05,56.52a6,6,0,0,0,12,0l.05-56.52a6,6,0,0,0-12,0Z"/><path class="cls-2" d="M205.15,324.11l47.17-.77c3.14,0,6.15-2.72,6-6a6.1,6.1,0,0,0-6-6l-47.17.77c-3.13.05-6.14,2.73-6,6a6.1,6.1,0,0,0,6,6Z"/><path class="cls-2" d="M260.55,264.64l-.1,53.68a6,6,0,0,0,12,0l.1-53.68a6,6,0,0,0-12,0Z"/><path class="cls-2" d="M267.81,270.61l48.22-.32c3.14,0,6.15-2.75,6-6a6.11,6.11,0,0,0-6-6l-48.22.32c-3.14,0-6.15,2.75-6,6a6.08,6.08,0,0,0,6,6Z"/><path class="cls-2" d="M268,298.42l47.16-.77c3.14,0,6.15-2.72,6-6a6.09,6.09,0,0,0-6-6l-47.16.77c-3.14.05-6.15,2.72-6,6a6.08,6.08,0,0,0,6,6Z"/><path class="cls-2" d="M266.14,324.11l47.16-.77c3.14,0,6.15-2.72,6-6a6.1,6.1,0,0,0-6-6l-47.16.77c-3.14.05-6.15,2.73-6,6a6.08,6.08,0,0,0,6,6Z"/><path class="cls-2" d="M325.78,267.89,352.91,323c1.39,2.82,5.62,3.82,8.21,2.15a6.15,6.15,0,0,0,2.15-8.21l-27.13-55.14c-1.39-2.82-5.62-3.82-8.21-2.15a6.16,6.16,0,0,0-2.15,8.21Z"/><path class="cls-2" d="M377.1,260.81l-23.55,55.07a6.65,6.65,0,0,0-.61,4.63,6.12,6.12,0,0,0,2.76,3.58c2.58,1.36,6.89.93,8.21-2.15l23.55-55.08a6.56,6.56,0,0,0,.6-4.62,6.15,6.15,0,0,0-2.75-3.59c-2.58-1.36-6.9-.93-8.21,2.16Z"/><path class="cls-2" d="M392.63,263.77l-.3,53.68a6,6,0,0,0,12,0l.3-53.68a6,6,0,0,0-12,0Z"/><path class="cls-2" d="M399.88,269.74l48.23-.18a6,6,0,0,0,0-12l-48.23.18a6,6,0,0,0,0,12Z"/><path class="cls-2" d="M399.93,297.55l47.17-.63c3.14-.05,6.15-2.73,6-6a6.08,6.08,0,0,0-6-6l-47.17.63c-3.13,0-6.14,2.73-6,6a6.1,6.1,0,0,0,6,6Z"/><path class="cls-2" d="M398,323.24l47.17-.64c3.14,0,6.15-2.73,6-6a6.1,6.1,0,0,0-6-6l-47.17.64c-3.14,0-6.15,2.73-6,6a6.1,6.1,0,0,0,6,6Z"/><path class="cls-2" d="M456,261l0,56.52a6,6,0,0,0,12,0L468,261a6,6,0,0,0-12,0Z"/><path class="cls-2" d="M461.83,324.11l47.17-.77c3.14,0,6.15-2.72,6-6a6.1,6.1,0,0,0-6-6l-47.17.77c-3.13.05-6.14,2.73-6,6a6.1,6.1,0,0,0,6,6Z"/><path class="cls-2" d="M607.93,256.85A35.69,35.69,0,0,0,587,246.58a28.16,28.16,0,0,0-21,6.23,24.29,24.29,0,0,0-9.27,18.67,23.84,23.84,0,0,0,9.63,18.77A20.22,20.22,0,0,0,576.73,294c3.85.4,7.8-.44,11.56-1.21.89-.18,1.77-.37,2.66-.53l1.22-.23.61-.1c.81-.13-.06.05-.38.05.8,0,1.62-.17,2.42-.19H596c.27,0,1.74.17.8,0s.36.08.59.13c.43.1.84.21,1.26.35l.48.17c.6.18-.68-.3-.65-.28.33.21.72.34,1.06.54s.58.34.86.53.28.22.42.29-1-.84-.54-.42a20.84,20.84,0,0,1,1.6,1.52c.23.25.43.54.66.78-.07-.07-.85-1.2-.32-.39l.29.43c.41.63.75,1.29,1.1,1.95.48.95-.42-1.16-.06-.16.11.33.24.65.34,1,.23.72.36,1.46.53,2.19s-.09-.79-.09-.74,0,.35,0,.52q.06.6.06,1.2c0,.35,0,.69,0,1,0,.17,0,.35-.05.53,0,.77.23-1.27.08-.51s-.27,1.44-.47,2.14q-.15.52-.33,1.05l-.19.51c-.28.77,0-.22.18-.42-.43.64-.7,1.43-1.1,2.11-.19.31-.38.62-.59.93l-.31.45c-.44.66.09-.13.27-.33a37.25,37.25,0,0,1-3.2,3.33c-1,.88.73-.5-.1.1-.3.21-.6.43-.91.63a21.68,21.68,0,0,1-2.07,1.23l-1.12.56a2.34,2.34,0,0,0-.58.26s1.08-.41.45-.2c-.88.29-1.73.62-2.62.87s-1.79.46-2.7.63c-.22,0-1.58.24-.67.12s.11,0-.06,0l-.85.09a38.34,38.34,0,0,1-5.36.07,20.22,20.22,0,0,0-2.78-.25s1.22.19.53.07l-.63-.1c-.49-.08-1-.16-1.45-.26a38.93,38.93,0,0,1-5.09-1.35c-.47-.15-.93-.32-1.38-.5a3.28,3.28,0,0,0-.59-.23s1.07.48.47.19c-.82-.39-1.64-.77-2.44-1.21s-1.45-.85-2.14-1.32c-.27-.18-.72-.66-1-.72,0,0,.87.71.4.3-.19-.18-.4-.34-.6-.51-.64-.56-1.26-1.15-1.84-1.77l-.78-.89c-.11-.12-.51-.67,0,0s0,0-.13-.18a22.26,22.26,0,0,1-1.27-2c-.19-.33-.38-.68-.55-1-.09-.17-.17-.35-.26-.53-.35-.72.1.08.15.36-.13-.79-.58-1.61-.78-2.4-.1-.38-.18-.76-.25-1.14-.26-1.41.08.93,0-.15a6.48,6.48,0,0,0-1.76-4.24,6.09,6.09,0,0,0-4.24-1.76c-3,.14-6.32,2.66-6,6,.82,8.59,5.44,15.69,12.41,20.65,6.48,4.62,14.85,6.67,22.72,7s16.19-1.55,22.49-6.38,10.78-11.84,11.16-20A22.6,22.6,0,0,0,606.63,283c-7-4.79-15.28-3-23-1.48A23.3,23.3,0,0,0,581,282s1.26-.14.58-.07L581,282c-.48,0-1,.09-1.43.11a23.09,23.09,0,0,1-2.63-.05c-1.14-.08,1.11.24,0,0-.38-.09-.76-.17-1.13-.28s-.63-.23-.94-.31c-.58-.13.68.31.67.3s-.31-.13-.45-.2a21.53,21.53,0,0,1-2-1.15,2.7,2.7,0,0,0-.4-.29s1,.86.57.43c-.23-.23-.5-.43-.74-.65-.57-.53-1-1.12-1.58-1.69s.45.58.44.56a2.34,2.34,0,0,0-.29-.41c-.18-.28-.37-.55-.55-.84-.38-.62-.7-1.26-1-1.91-.44-.93.52,1.37,0,0-.11-.31-.22-.63-.31-.95a19.52,19.52,0,0,1-.49-2.11c-.2-1.06.1,1.34,0,.27,0-.39,0-.78-.06-1.17,0-.73.08-1.44.11-2.16,0-.06-.25,1.4-.09.77,0-.17.07-.35.1-.52.07-.34.16-.69.26-1s.23-.8.37-1.19c.45-1.25-.43.85,0,0a20.81,20.81,0,0,1,1-1.87c.18-.31.38-.6.58-.89l.3-.44c.41-.61-.86,1-.18.23.47-.54.94-1.07,1.44-1.57l.78-.74c.19-.17,1.27-1,.49-.44s.33-.23.55-.38.6-.4.91-.59a21.31,21.31,0,0,1,2-1.12,4.16,4.16,0,0,0,.48-.22s-1.21.48-.6.25l1.18-.44c.73-.24,1.48-.45,2.24-.62.35-.07.71-.12,1.06-.2.63-.14-.71.08-.67.08s.39,0,.59-.06a25.37,25.37,0,0,1,2.76-.09l1.18.06c.23,0,1.54.18.57,0s.33.06.56.1c.52.1,1,.21,1.55.34.76.19,1.52.41,2.27.67.38.13.74.29,1.12.41.62.22-.52-.22-.52-.22.23.12.49.21.73.32a29.79,29.79,0,0,1,4.48,2.59c.32.22.63.51,1,.7-.13-.07-1.06-.87-.27-.2l.46.38c.65.56,1.28,1.15,1.89,1.76a6,6,0,0,0,8.49-8.48Z"/><path class="cls-2" d="M330.71,121.08a1.5,1.5,0,0,0,0-3,1.5,1.5,0,0,0,0,3Z"/><path class="cls-2" d="M626.52,262.73l0,53.68a6,6,0,1,0,12,0l0-53.68a6,6,0,0,0-12,0Z"/><path class="cls-2" d="M633.78,268.7l48.23-.39a6,6,0,0,0,0-12l-48.23.39a6,6,0,0,0,0,12Z"/><path class="cls-2" d="M634,296.51l47.17-.84c3.13-.05,6.15-2.72,6-6a6.1,6.1,0,0,0-6-6l-47.17.84c-3.13.05-6.14,2.72-6,6a6.1,6.1,0,0,0,6,6Z"/><path class="cls-2" d="M632.19,322.2l47.16-.83c3.14-.06,6.15-2.72,6-6a6.09,6.09,0,0,0-6-6l-47.16.83c-3.14.05-6.15,2.72-6,6a6.09,6.09,0,0,0,6,6Z"/><path class="cls-2" d="M701,259l0,56.52a6,6,0,0,0,12,0L713,259a6,6,0,0,0-12,0Z"/><path class="cls-2" d="M706.83,322.11l47.17-.77c3.14,0,6.15-2.72,6-6a6.1,6.1,0,0,0-6-6l-47.17.77c-3.13.05-6.14,2.73-6,6a6.1,6.1,0,0,0,6,6Z"/><path class="cls-2" d="M763.52,263.73l0,53.68a6,6,0,1,0,12,0l0-53.68a6,6,0,0,0-12,0Z"/><path class="cls-2" d="M770.78,269.7l48.23-.39a6,6,0,0,0,0-12l-48.23.39a6,6,0,0,0,0,12Z"/><path class="cls-2" d="M771,297.51l47.17-.84c3.13-.05,6.15-2.72,6-6a6.1,6.1,0,0,0-6-6l-47.17.84c-3.13.05-6.14,2.72-6,6a6.1,6.1,0,0,0,6,6Z"/><path class="cls-2" d="M769.19,323.2l47.16-.83c3.14-.06,6.15-2.72,6-6a6.09,6.09,0,0,0-6-6l-47.16.83c-3.14.05-6.15,2.72-6,6a6.09,6.09,0,0,0,6,6Z"/><path class="cls-2" d="M891.15,259.91c-5.46-10.29-19-11.86-29.36-10.19a37.88,37.88,0,0,0-27.77,21,39,39,0,0,0,23.37,53c12.36,4.05,27.67,2,36.76-7.86a4.5,4.5,0,1,0-6.36-6.37,28.65,28.65,0,0,1-2.59,2.46c-.89.76.76-.52-.21.15l-.57.41c-.59.39-1.18.76-1.8,1.1s-1,.56-1.55.81c-.18.08-1.27.54-.21.11l-.66.26a27.81,27.81,0,0,1-3.7,1.15c-.58.14-1.16.26-1.74.37l-1,.17c.15,0,1-.11.13,0-1.3.13-2.61.22-3.92.22a35.56,35.56,0,0,1-3.57-.18l-1.06-.11c.15,0,1,.15.14,0s-1.4-.24-2.09-.39c-1.15-.25-2.28-.55-3.39-.91-.55-.18-1.09-.37-1.63-.57l-.79-.31.29.12-.61-.27a35.65,35.65,0,0,1-6-3.56c-.65-.47,0,0,.13.11l-.76-.62c-.41-.35-.82-.71-1.22-1.08a35.22,35.22,0,0,1-2.49-2.55c-.36-.41-.7-.83-1-1.24-.16-.2-.57-.55.11.14a6.23,6.23,0,0,1-.57-.78c-.69-1-1.33-2-1.92-3s-1-1.89-1.46-2.86a5.15,5.15,0,0,1-.27-.59c.26,1.1.07.16,0-.11-.22-.55-.42-1.1-.61-1.66-.34-1-.63-2-.88-3.09-.12-.52-.24-1.05-.34-1.57,0-.27-.09-.53-.14-.79-.1-.63-.23-.73,0-.08a13.08,13.08,0,0,1-.25-3.37,32.1,32.1,0,0,1,.08-3.4,9.78,9.78,0,0,1,.17-1.62c-.32,1.26.08-.39.14-.74a34.78,34.78,0,0,1,.87-3.52c.17-.54.35-1.06.54-1.59.1-.28.81-1.86.3-.8.57-1.19,1.13-2.38,1.8-3.51.32-.54.65-1.06,1-1.57.21-.31.43-.61.64-.91s.51-.69,0,0a31.19,31.19,0,0,1,2.7-3c.88-.87,1.8-1.68,2.76-2.46-.73.59-.08.06.11-.08l.75-.54c.61-.42,1.23-.83,1.86-1.21a32.81,32.81,0,0,1,3.26-1.74s1.11-.5.47-.22.49-.19.49-.2c.7-.26,1.39-.51,2.1-.73a33.06,33.06,0,0,1,4.15-1l.92-.16c-1,.18-.12,0,.12,0l1.8-.15a36.47,36.47,0,0,1,3.77,0c.65,0,1.3.07,1.94.13l.64.07-.22,0,.64.11a25.48,25.48,0,0,1,3.45.83l.91.31c.28.1,1.19.27.1,0a7.37,7.37,0,0,1,1.69.83c.3.17,1.41.66,1.56,1-.23-.53-.52-.45-.07,0,.27.24.54.48.8.73l.43.44c.14.15.27.31.4.47.31.37.27.32-.13-.18.39.16.81,1.27,1,1.63a4.53,4.53,0,0,0,6.15,1.61,4.6,4.6,0,0,0,1.62-6.16Z"/><path class="cls-2" d="M907.12,266.83,956,265c3.13-.12,6.15-2.68,6-6-.14-3.15-2.64-6.13-6-6l-48.88,1.83c-3.13.12-6.15,2.68-6,6,.14,3.15,2.64,6.13,6,6Z"/><path class="cls-2" d="M923.84,259.72l-.13,50.08,0,14.2a6,6,0,1,0,12,0l.14-50.08,0-14.2a6,6,0,0,0-12,0Z"/><path class="cls-2" d="M623.33,382.45a1.5,1.5,0,0,0,0-3,1.5,1.5,0,0,0,0,3Z"/><rect class="cls-7" x="155.5" y="381.5" width="99" height="99" rx="27.38"/><path class="cls-2" d="M227.12,382A26.91,26.91,0,0,1,254,408.88v44.24A26.91,26.91,0,0,1,227.12,480H182.88A26.91,26.91,0,0,1,156,453.12V408.88A26.91,26.91,0,0,1,182.88,382h44.24m0-1H182.88A28,28,0,0,0,155,408.88v44.24A28,28,0,0,0,182.88,481h44.24A28,28,0,0,0,255,453.12V408.88A28,28,0,0,0,227.12,381Z"/><path class="cls-2" d="M189.69,420.61a32.92,32.92,0,0,0,22.8-24.46h-8.68l.3,1.93c.08.56.09.65,0,.26l.12,1c.16,1.29.29,2.59.4,3.88.22,2.59.34,5.18.39,7.78a153.34,153.34,0,0,1-.55,15.6c-.43,5.22-1,10.24-1.73,14.89-.75,5.18-1.61,10.35-2.47,15.52-.38,2.31.61,4.95,3.15,5.53a4.59,4.59,0,0,0,5.53-3.14l.56-1.86a4.5,4.5,0,0,0-8.68-2.39l-.56,1.86,8.68,2.39c2.78-16.7,5.62-33.6,5-50.59a120,120,0,0,0-1.51-15,4.52,4.52,0,0,0-4.34-3.31,4.58,4.58,0,0,0-4.34,3.31,26.48,26.48,0,0,1-.95,3.49c-.1.29-.2.57-.31.85-.17.44-.28.66,0,.1-.25.55-.5,1.1-.78,1.63a28.79,28.79,0,0,1-1.87,3.11c-.18.24-.36.48-.53.73-.38.55.67-.8-.08.09-.39.47-.77.93-1.18,1.38a31,31,0,0,1-2.62,2.5l-.56.46c.79-.68-.12.09-.25.18-.44.32-.89.62-1.35.91a27.9,27.9,0,0,1-3.17,1.74c-.42.2-.66.28-.09.06l-.84.32c-.63.23-1.26.43-1.9.62a4.5,4.5,0,0,0,2.39,8.68Z"/><path class="cls-2" d="M192.79,468.73c7.12-2,14.22-4.22,21.44-5.89,1.71-.4,3.44-.75,5.18-1l.71-.11.35-.06c-.41.06.73-.08.83-.09.88-.09,1.76-.17,2.64-.21a19.83,19.83,0,0,1,2,0c.14,0,1.34.11.69,0s.36.08.49.11c.35.07.69.18,1,.28,1,.28-.68-.45.23.08.31.18.61.35.9.55-.62-.43-.14-.07.16.24a4.55,4.55,0,0,0,6.36,0,4.6,4.6,0,0,0,0-6.37c-5.6-5.8-15.14-4-22.14-2.53-7.87,1.66-15.59,4.13-23.32,6.31a4.5,4.5,0,0,0,2.4,8.68Z"/><rect class="cls-8" x="282.5" y="384.5" width="99" height="99" rx="27.38"/><path class="cls-2" d="M354.12,385A26.91,26.91,0,0,1,381,411.88v44.24A26.91,26.91,0,0,1,354.12,483H309.88A26.91,26.91,0,0,1,283,456.12V411.88A26.91,26.91,0,0,1,309.88,385h44.24m0-1H309.88A28,28,0,0,0,282,411.88v44.24A28,28,0,0,0,309.88,484h44.24A28,28,0,0,0,382,456.12V411.88A28,28,0,0,0,354.12,384Z"/><path class="cls-2" d="M311.71,424.91a18.42,18.42,0,0,1-.15-2.35c0-.36,0-.72.05-1.08s0-.48.06-.72c.06-.66-.16.76,0,.12s.32-1.53.55-2.29c.11-.34.23-.69.35-1,0-.08.26-.65.05-.13s.16-.35.22-.46a18,18,0,0,1,1.16-2.05c.2-.3.42-.6.62-.89s-.11.15-.15.19l.47-.55A18.69,18.69,0,0,1,316.6,412l.25-.22c-.41.35,0,0,.11-.09.35-.24.7-.48,1.06-.7s.73-.43,1.11-.62,1-.45.24-.15a16.93,16.93,0,0,1,2.41-.78c.35-.09.71-.15,1.06-.22.83-.17,0,0-.12,0l.54-.06a19.43,19.43,0,0,1,2.53-.05c.37,0,.73.06,1.09.08.67,0-.77-.15-.12,0l.54.09a19.34,19.34,0,0,1,2.46.64l1,.38c-.83-.31.08.05.41.21a20.64,20.64,0,0,1,2,1.2l.58.43c-.05,0-.55-.49-.2-.14s.55.48.81.73.6.59.88.91c.12.14.23.28.35.41.44.46-.39-.58,0,0s.88,1.29,1.26,2c.2.37.37.76.57,1.13s-.08-.19-.1-.24c.09.23.18.45.26.68a20,20,0,0,1,.65,2.26c.08.36.13.72.21,1.07.14.66-.06-.78,0-.11,0,.24.05.48.07.72a18.43,18.43,0,0,1,0,2.35c0,.37-.06.72-.09,1.09.09-1-.06.2-.15.58-.17.77-.45,1.5-.67,2.26-.14.48.09-.18.12-.24l-.26.56c-.2.42-.42.84-.66,1.25-.43.76-.93,1.47-1.43,2.19s.42-.47-.05.05l-.38.46c-.31.37-.63.72-.95,1.07a90.75,90.75,0,0,1-8.61,7.66l-22.93,19.07a4.52,4.52,0,0,0-.7,5.45,4.76,4.76,0,0,0,5.08,2.07l30-4.46,7.38-1.09c.6-.09,1.2-.22,1.81-.27-1.31.11.24,0,.49,0,.8-.09,1.61-.15,2.42-.18s1.84,0,2.76.06c.51,0,.45,0-.19,0,.22,0,.43.06.65.11s.64.13,1,.22.41.12.61.19c.47.17.4.13-.19-.11.36,0,.78.42,1.1.58s.35.23-.15-.16c.16.14.31.27.46.42s.3.3.44.46c-.37-.5-.4-.54-.12-.13,1.34,1.93,4,3,6.16,1.61,1.92-1.24,3-4.08,1.61-6.16-4.45-6.45-12.21-6.51-19.24-5.52-8.29,1.16-16.57,2.46-24.85,3.69l-14.51,2.15,4.38,7.52,22.55-18.75c6.48-5.39,13.89-11.14,15.66-19.9,1.67-8.29-1.16-17.37-7.95-22.61a23.18,23.18,0,0,0-23.84-2.64,22.83,22.83,0,0,0-12.53,22.63c.28,2.33,1.86,4.62,4.5,4.5,2.19-.1,4.8-2,4.5-4.5Z"/><rect class="cls-9" x="435.5" y="384.5" width="99" height="99" rx="27.38"/><path class="cls-2" d="M507.12,385A26.91,26.91,0,0,1,534,411.88v44.24A26.91,26.91,0,0,1,507.12,483H462.88A26.91,26.91,0,0,1,436,456.12V411.88A26.91,26.91,0,0,1,462.88,385h44.24m0-1H462.88A28,28,0,0,0,435,411.88v44.24A28,28,0,0,0,462.88,484h44.24A28,28,0,0,0,535,456.12V411.88A28,28,0,0,0,507.12,384Z"/><path class="cls-2" d="M485.88,436.26c3.05.07,6.09-.09,9.13,0q1.17,0,2.34.12l1,.09a2.94,2.94,0,0,1,.65.07c-.26-.08-.81-.13-.21,0s1.48.26,2.21.45c.36.09.71.2,1.07.31s1.34.53.77.26.42.22.57.3c.31.17.61.37.91.54.05,0,.38.21.38.26s-.69-.61-.19-.15c.3.28.6.54.88.84.11.11.2.25.31.35.45.4-.45-.72-.1-.14.23.38.49.74.7,1.13.09.16.16.34.26.49.34.56-.21-.67,0,0,.15.47.32.93.44,1.41s.18.84.25,1.26c-.13-.8,0-.11,0,.28a11.47,11.47,0,0,1,0,1.31c0,.25,0,.5,0,.75s-.06.93,0,.34,0,.19-.06.34-.06.37-.1.56c-.09.43-.19.87-.31,1.29a22.94,22.94,0,0,1-.9,2.69c.33-.83-.08.17-.22.45s-.38.76-.59,1.14c-.42.75-.88,1.48-1.37,2.19-.21.3-.77,1-.21.33-.25.31-.5.62-.77.93-.56.65-1.15,1.28-1.77,1.87s-1.18,1.09-1.8,1.61.52-.36-.18.14c-.37.27-.75.54-1.13.79-.67.45-1.36.87-2.06,1.25-.35.2-.71.38-1.07.56l-.61.3-.25.12c.55-.26-.56.22-.73.28-.38.14-.75.27-1.13.39q-1.21.39-2.46.66l-1.17.22c-1.07.17.52,0-.31,0s-1.68.12-2.53.11a10,10,0,0,0-2.19-.13c.11-.12.89.14.19,0l-.5-.08c-.5-.1-1-.21-1.5-.34a20.27,20.27,0,0,1-2.13-.68c-.14-.05-.82-.36-.27-.1s0,0-.11-.06c-.42-.22-.85-.42-1.26-.65s-.86-.5-1.28-.77c-.27-.18-1.31-.95-.6-.39a22.75,22.75,0,0,1-2.19-2c-.34-.35-.66-.72-1-1.09l-.47-.57c.25.3.31.42,0,0-.61-.86-1.18-1.73-1.7-2.64s-.89-1.76-1.33-2.65c-.22-.46.07.17.09.22-.11-.28-.23-.57-.34-.86-.17-.47-.34-.93-.5-1.41a41.27,41.27,0,0,1-1.46-5.92c-.41-2.33-3.38-3.84-5.54-3.15a4.64,4.64,0,0,0-3.14,5.54c1.49,8.58,5.52,16.77,12.66,22,6.74,4.93,15.88,5.82,23.7,3.2A32.51,32.51,0,0,0,513,457c4.11-7.82,5.08-19-2.5-25.15-7-5.65-16.28-4.36-24.64-4.57a4.55,4.55,0,0,0-4.5,4.5,4.61,4.61,0,0,0,4.5,4.5Z"/><path class="cls-2" d="M470.27,410.13a22.8,22.8,0,0,1,2.3-2.31c.22-.2.46-.39.69-.58.54-.45-.87.57.09-.05.5-.33,1-.67,1.5-1s1-.59,1.57-.85c.32-.16,1.45-.62.55-.28a26.63,26.63,0,0,1,3.39-1.06c.52-.12,1.05-.2,1.57-.31.71-.13-1.11.08,0,0l.7-.06a22.26,22.26,0,0,1,3.56,0l.71.07c-1.06-.12-.23,0,0,0,.53.1,1.06.22,1.58.35s1,.3,1.55.48l.85.31c-.73-.28-.1,0,.26.13a21.34,21.34,0,0,1,2.7,1.57l.57.41c-.75-.5-.24-.2-.07-.05.5.42,1,.84,1.46,1.3s.75.75,1.1,1.15c.2.23.38.46.58.68.47.53-.58-.87.05.07a22.85,22.85,0,0,1,1.69,2.86c.12.25.36,1,0,0,.07.21.16.42.23.64a15.09,15.09,0,0,1,.41,1.46,3,3,0,0,1,.15.83c0-.1-.08-1.07,0-.2,0,.56,0,1.11,0,1.67,0,1.07.17-.69,0,0-.06.28-.1.56-.17.83s-.12.45-.19.67c0,0-.41,1.1-.14.45s-.23.42-.24.44c-.11.22-.24.44-.37.65s-.28.43-.41.64c-.55.87.39-.36-.24.3-.48.5-.93,1-1.45,1.45-.18.16-.85.66-.1.11-.29.22-.6.43-.91.63-.51.33-1.05.63-1.59.91l-.67.32c-.92.48.61-.19-.28.13a33.72,33.72,0,0,1-3.94,1.19c-.6.14-1.21.26-1.83.37-.3.06-.61.11-.92.15s-1.6.22-.44.08c-2.33.29-4.62,1.85-4.5,4.5.09,2.18,2,4.81,4.5,4.5,6.23-.8,12.38-2.34,17.18-6.64a16.83,16.83,0,0,0,5.08-17c-3.14-11.51-15.68-18.81-27.21-17.34a27.28,27.28,0,0,0-17.35,9c-1.54,1.78-1.88,4.64,0,6.36,1.69,1.55,4.72,1.9,6.36,0Z"/><rect class="cls-10" x="582.5" y="384.5" width="99" height="99" rx="27.38"/><path class="cls-2" d="M654.12,385A26.91,26.91,0,0,1,681,411.88v44.24A26.91,26.91,0,0,1,654.12,483H609.88A26.91,26.91,0,0,1,583,456.12V411.88A26.91,26.91,0,0,1,609.88,385h44.24m0-1H609.88A28,28,0,0,0,582,411.88v44.24A28,28,0,0,0,609.88,484h44.24A28,28,0,0,0,682,456.12V411.88A28,28,0,0,0,654.12,384Z"/><path class="cls-2" d="M628.27,395.73a491.8,491.8,0,0,0-28.09,47.46,4.55,4.55,0,0,0,3.88,6.77l31.48.52c5.13.09,10.27.19,15.4.26s10.43-.08,15.26-2c2.18-.86,3.94-3.05,3.14-5.53-.69-2.12-3.19-4.08-5.54-3.15a22.81,22.81,0,0,1-3.55,1.1c-.59.14-1.2.25-1.8.34.79-.12-.92.09-1.08.1-2.29.19-4.59.16-6.88.13L635,441.48l-31-.52,3.89,6.77a491.06,491.06,0,0,1,28.1-47.46,4.54,4.54,0,0,0-1.62-6.16,4.62,4.62,0,0,0-6.16,1.62Z"/><path class="cls-2" d="M638.47,420.59l.56,48.58a4.5,4.5,0,1,0,9,0l-.56-48.58a4.5,4.5,0,1,0-9,0Z"/><rect class="cls-11" x="730.5" y="384.5" width="99" height="99" rx="27.38"/><path class="cls-2" d="M802.12,385A26.91,26.91,0,0,1,829,411.88v44.24A26.91,26.91,0,0,1,802.12,483H757.88A26.91,26.91,0,0,1,731,456.12V411.88A26.91,26.91,0,0,1,757.88,385h44.24m0-1H757.88A28,28,0,0,0,730,411.88v44.24A28,28,0,0,0,757.88,484h44.24A28,28,0,0,0,830,456.12V411.88A28,28,0,0,0,802.12,384Z"/><path class="cls-2" d="M791.59,409.88,779,408.11c-2.2-.31-4.39-.63-6.58-.92a11.44,11.44,0,0,0-6.29.64c-4.08,1.82-4.73,5.94-4.63,9.95l.33,12.8c.08,3.48,4.77,3.94,5.89.8a9.78,9.78,0,0,1,5.1-5.69,12,12,0,0,1,1.8-.5,11.44,11.44,0,0,1,2.68-.06,28.32,28.32,0,0,1,5.39,1c6.1,1.65,11.87,5.23,14.24,11.34a16.35,16.35,0,0,1-2.9,16.28,15.71,15.71,0,0,1-16.15,4.62c-7.08-1.89-12.49-7.62-16.31-13.61a3,3,0,1,0-5.18,3c4.38,6.88,10.36,13.05,18.18,15.84s16.83,1.28,22.73-4.57a22.7,22.7,0,0,0,5.92-21.66c-2.36-8.38-9.42-14.08-17.49-16.62-4.65-1.47-10.23-2.63-14.91-.72a16,16,0,0,0-8.89,9.71l5.9.8-.28-11.08a25.12,25.12,0,0,1,0-4.67,1.89,1.89,0,0,1,1.58-1.73,12.57,12.57,0,0,1,4.4.25l5.32.75L790,415.66a3.1,3.1,0,0,0,3.69-2.09c.39-1.41-.48-3.47-2.09-3.69Z"/></svg>